HIERARCHY
ROOT Hips
{
	OFFSET 0.00000 0.00000 0.00000
	CHANNELS 6 Xposition Yposition Zposition Zrotation Yrotation Xrotation 
	JOINT LHipJoint
	{
		OFFSET 0 0 0
		CHANNELS 3 Zrotation Yrotation Xrotation
		JOINT LeftHip
		{
			OFFSET 1.76014 -1.80163 0.38499
			CHANNELS 3 Zrotation Yrotation Xrotation
			JOINT LeftKnee
			{
				OFFSET 2.46817 -6.78126 0.00000
				CHANNELS 3 Zrotation Yrotation Xrotation
				JOINT LeftAnkle
				{
					OFFSET 2.79348 -7.67503 0.00000
					CHANNELS 3 Zrotation Yrotation Xrotation
					JOINT LeftToe
					{
						OFFSET 0.09421 -0.25885 1.91403
						CHANNELS 3 Zrotation Yrotation Xrotation
						End Site
						{
							OFFSET 0.00000 -0.00000 0.97975
						}
					}
				}
			}
		}
	}
	JOINT RHipJoint
	{
		OFFSET 0 0 0
		CHANNELS 3 Zrotation Yrotation Xrotation
		JOINT RightHip
		{
			OFFSET -1.77926 -1.80163 0.38499
			CHANNELS 3 Zrotation Yrotation Xrotation
			JOINT RightKnee
			{
				OFFSET -2.51996 -6.92353 0.00000
				CHANNELS 3 Zrotation Yrotation Xrotation
				JOINT RightAnkle
				{
					OFFSET -2.76109 -7.58603 0.00000
					CHANNELS 3 Zrotation Yrotation Xrotation
					JOINT RightToe
					{
						OFFSET -0.08067 -0.22163 1.86812
						CHANNELS 3 Zrotation Yrotation Xrotation
						End Site
						{
							OFFSET -0.00000 -0.00000 0.95558
						}
					}
				}
			}
		}
	}
	JOINT lowerback
	{
		OFFSET 0 0 0
		CHANNELS 3 Zrotation Yrotation Xrotation
		JOINT Chest
		{
			OFFSET 0.05537 1.92033 -0.03713
			CHANNELS 3 Zrotation Yrotation Xrotation
			JOINT Chest2
			{
				OFFSET 0.04452 1.90073 0.10860
				CHANNELS 3 Zrotation Yrotation Xrotation
				JOINT lowerneck
				{
					OFFSET 0 0 0
					CHANNELS 3 Zrotation Yrotation Xrotation
					JOINT Neck
					{
						OFFSET 0.00903 1.74649 0.02074
						CHANNELS 3 Zrotation Yrotation Xrotation
						JOINT Head
						{
							OFFSET -0.08608 1.67844 -0.12081
							CHANNELS 3 Zrotation Yrotation Xrotation
							End Site
							{
								OFFSET -0.03521 1.83380 -0.05059
							}
						}
					}
				}
				JOINT LeftCollar
				{
					OFFSET 0 0 0
					CHANNELS 3 Zrotation Yrotation Xrotation
					JOINT LeftShoulder
					{
						OFFSET 3.28197 0.84325 -0.19106
CHANNELS 3 Zrotation Xrotation Yrotation
						JOINT LeftElbow
						{
OFFSET 0 -5.243180 -0.000000
CHANNELS 3 Zrotation Xrotation Yrotation
							JOINT LeftWrist
							{
OFFSET 0 -2.989990 0.000000
CHANNELS 3 Zrotation Xrotation Yrotation
								JOINT lhand
								{
									OFFSET 0 0 0
CHANNELS 3 Zrotation Xrotation Yrotation
									JOINT LFingers
									{
OFFSET 0 -0.726740 0.000000
CHANNELS 3 Zrotation Xrotation Yrotation
										End Site
										{
OFFSET 0 -0.585920 0.000000
										}
									}
								}
								JOINT LThumb
								{
OFFSET 0 0.000000 0.000000
CHANNELS 3 Zrotation Xrotation Yrotation
									End Site
									{
OFFSET 0 -0.594870 0.594870
									}
								}
							}
						}
					}
				}
				JOINT RightCollar
				{
					OFFSET 0 0 0
					CHANNELS 3 Zrotation Yrotation Xrotation
					JOINT RightShoulder
					{
						OFFSET -3.30963 0.78377 0.14264
CHANNELS 3 Zrotation Xrotation Yrotation
						JOINT RightElbow
						{
OFFSET 0 -5.370450 0.000000
CHANNELS 3 Zrotation Xrotation Yrotation
							JOINT RightWrist
							{
OFFSET 0 -2.927920 0.000000
CHANNELS 3 Zrotation Xrotation Yrotation
								JOINT rhand
								{
									OFFSET 0 0 0
CHANNELS 3 Zrotation Xrotation Yrotation
									JOINT RFingers
									{
OFFSET 0 -0.784500 0.000000
CHANNELS 3 Zrotation Xrotation Yrotation
										End Site
										{
OFFSET 0 -0.632480 0.000000
										}
									}
								}
								JOINT RThumb
								{
OFFSET 0 0.000000 0.000000
CHANNELS 3 Zrotation Xrotation Yrotation
									End Site
									{
OFFSET 0 -0.642140 0.642140
									}
								}
							}
						}
					}
				}
			}
		}
	}
}
MOTION
Frames: 4
Frame Time: 0.008333333333333333
0.211000 18.226600 0.401800 -2.979400 -3.042500 10.238100 0.000000 0.000000 0.000000 -14.530800 -21.461400 -8.478000 1.198400 6.945900 19.555300 -0.763800 17.246400 -15.065300 0.452400 -4.315200 -11.965200 0.000000 0.000000 0.000000 21.112000 17.755200 -5.880200 -0.349100 -3.796300 10.504200 0.704900 -15.187000 -9.858200 -0.957500 6.230800 -17.455500 2.053600 0.044900 -5.290000 3.325500 0.000500 -4.248700 2.270400 -0.003000 -1.409500 3.845700 0.698600 -7.457900 -8.809100 1.472400 10.175400 -3.260400 0.376700 4.353300 -0.000000 -0.000000 0.000000 2.879600 -1.300700 18.516500 7.692400 -13.053000 0.881400 4.550000 43.360600 -21.682100 0.000000 0.000000 0.000000 -7.125000 0.000000 0.000000 -23.888800 50.137000 3.184900 -0.000000 -0.000000 0.000000 -15.073500 -7.836400 -8.930100 -13.700500 -22.304900 -2.713400 -4.082400 33.839400 -5.160900 0.000000 0.000000 0.000000 7.125000 0.000000 -0.000000 16.728800 24.777000 8.529900
0.200196 18.228459 0.475289 -2.884100 -2.896080 10.417299 0.000000 0.000000 0.000000 -14.646195 -21.624730 -8.172196 1.162762 6.845465 19.258414 -0.766446 17.318522 -15.205720 0.400531 -4.063137 -11.254458 0.000000 0.000000 0.000000 21.079220 17.692105 -5.750306 -0.344793 -3.772945 10.438761 0.707123 -15.262440 -10.106313 -0.959638 6.234556 -17.467456 1.867220 0.062282 -4.894584 3.327612 0.027176 -3.728519 2.375654 0.014789 -1.092726 3.931271 0.671771 -7.628246 -8.807406 1.291865 8.201827 -3.267604 0.322156 3.773884 0.000000 0.000000 0.000000 2.888448 7.168747 20.102710 7.961225 -13.489956 0.943057 2.600173 40.741497 -13.182188 0.000000 0.000000 0.000000 -7.125000 0.000000 0.000000 -22.004577 42.065850 -1.681939 0.000000 0.000000 0.000000 -12.928850 1.055185 -19.432582 -11.801459 -19.506107 -2.035639 -0.335390 40.019259 -4.871828 0.000000 0.000000 0.000000 7.125000 0.000000 0.000000 19.460236 25.034630 9.955209
0.195002 18.226580 0.521575 -3.106794 -2.614467 10.600381 0.000000 0.000000 0.000000 -14.327178 -21.660901 -8.434301 1.199258 6.948312 19.562253 -0.744630 17.182791 -15.262460 0.464622 -4.372277 -12.126487 0.000000 0.000000 0.000000 21.360784 17.481836 -5.630464 -0.322146 -3.648358 10.089311 0.704475 -15.252362 -10.164947 -0.927767 6.135388 -17.178123 2.135012 0.060725 -4.085403 3.382502 0.047571 -3.617581 2.281647 0.019749 -1.430359 3.771912 0.554129 -7.784879 -8.393814 1.085038 7.827832 -3.122202 0.238488 3.670724 0.000000 0.000000 0.000000 1.670072 14.081624 24.474820 7.723840 -13.104136 0.888481 6.489020 39.252951 -16.122959 0.000000 0.000000 0.000000 -7.125000 0.000000 0.000000 -19.694433 45.238197 0.119732 0.000000 0.000000 0.000000 -9.830326 10.098013 -23.718516 -11.467273 -19.000939 -1.925324 1.893295 41.428023 -4.472538 0.000000 0.000000 0.000000 7.125000 0.000000 0.000000 21.108328 25.378776 10.732216
0.197582 18.225342 0.527930 -3.117494 -2.323345 10.937189 0.000000 0.000000 0.000000 -14.123344 -21.993924 -8.819055 1.203591 6.960379 19.597981 -0.706148 16.950895 -15.384760 0.412939 -4.124916 -11.428410 0.000000 0.000000 0.000000 21.299396 17.543597 -5.806957 -0.307127 -3.562928 9.850118 0.741972 -15.575163 -10.143701 -0.958381 6.233461 -17.463415 2.274358 0.099067 -3.807394 3.363515 0.097311 -3.361205 2.183779 0.042203 -1.322245 3.813103 0.412815 -7.974130 -8.301787 0.868341 7.680903 -3.111795 0.135513 3.643902 0.000000 0.000000 0.000000 0.428525 17.462835 34.474800 6.778209 -11.553661 0.686529 8.758473 48.653939 -20.519916 0.000000 0.000000 0.000000 -7.125000 0.000000 0.000000 -19.432262 49.696958 2.329152 0.000000 0.000000 0.000000 -5.963696 16.511236 -27.206550 -11.407550 -18.910171 -1.905885 1.292141 39.842227 -4.416957 0.000000 0.000000 0.000000 7.125000 0.000000 0.000000 20.691955 25.440721 10.458476
